<svg width="48" height="48" viewBox="0 0 48 48" fill="none" xmlns="http://www.w3.org/2000/svg">
<ellipse cx="23.6199" cy="25.7918" rx="17.6471" ry="17.6471" fill="#FFBABA"/>
<path d="M24.6573 38.4009C23.1018 38.4009 21.9281 38.0207 21.1362 37.2603C20.3443 36.4998 19.9483 35.4436 19.9483 34.0917L20.0332 33.1623C20.0332 32.937 19.9766 32.8243 19.8635 32.8243L19.6089 32.9933C18.9301 34.1199 18.2231 35.162 17.4877 36.1196C16.7524 37.049 16.1868 37.7109 15.7908 38.1052L15.1969 38.6544C14.8009 39.0206 14.504 39.2036 14.306 39.2036C14.108 39.2036 14.009 39.0346 14.009 38.6967C14.009 38.246 14.1504 37.6968 14.4333 37.049C14.8575 36.1196 15.4514 34.8804 16.215 33.3313C16.9504 31.7541 18.4352 28.9799 20.6695 25.0086C22.9321 21.0093 25.124 17.4887 27.2451 14.4469C29.3946 11.3488 31.0632 9.23643 32.2511 8.10984C32.6753 7.68737 33.0006 7.47614 33.2268 7.47614C33.3682 7.47614 33.4389 7.5888 33.4389 7.81412C33.4389 7.87044 33.4107 8.0676 33.3541 8.40557C33.0996 9.53216 32.0955 11.6023 30.342 14.6159C26.835 20.3051 24.2896 24.9241 22.7058 28.4729C21.6594 30.4726 21.1362 32.3174 21.1362 34.0073C21.1362 34.9648 21.3907 35.7535 21.8998 36.3731C22.4089 36.9645 23.1159 37.2603 24.0209 37.2603C25.3219 37.2603 26.5805 36.7392 27.7966 35.6971C29.041 34.655 30.0734 33.4017 30.8935 31.9371C31.7137 30.4726 32.3784 28.9799 32.8874 27.459C33.3965 25.9381 33.6511 24.6566 33.6511 23.6145C33.6511 21.1078 32.4915 19.5869 30.1723 19.0518C30.1441 18.9392 30.1299 18.8265 30.1299 18.7138C30.1299 18.3759 30.3279 18.1787 30.7238 18.1224C32.9016 18.1224 34.8389 17.3197 36.5358 15.7143C38.2328 14.0808 39.0812 12.2078 39.0812 10.0955C39.0812 8.91254 38.6429 7.87044 37.7661 6.96918C36.8894 6.03974 35.2631 5.57502 32.8874 5.57502C30.3137 5.57502 28.235 6.27914 26.6512 7.68737C25.0674 9.09561 24.2755 10.701 24.2755 12.5035C24.2755 13.0105 24.3745 13.4752 24.5725 13.8977C24.6856 14.123 24.7421 14.3061 24.7421 14.4469C24.7421 14.6159 24.6573 14.7004 24.4876 14.7004C24.3462 14.7004 24.2189 14.6722 24.1058 14.6159C23.9078 14.5314 23.6674 14.4187 23.3846 14.2779C23.1018 14.1371 22.72 13.785 22.2392 13.2217C21.7867 12.6584 21.5604 12.0388 21.5604 11.3629C21.5604 9.504 22.7058 7.91269 24.9967 6.58895C27.2875 5.23705 30.0592 4.5611 33.3117 4.5611C33.6511 4.5611 34.0329 4.57518 34.4571 4.60334C34.9096 4.63151 35.6308 4.75825 36.6207 4.98357C37.6106 5.20888 38.4732 5.51869 39.2085 5.913C39.9721 6.27914 40.6509 6.8706 41.2448 7.68737C41.8388 8.50415 42.1357 9.46175 42.1357 10.5602C42.1357 11.7149 41.8529 12.7852 41.2873 13.7709C40.7499 14.7285 40.0146 15.5453 39.0812 16.2213C38.1762 16.8691 37.2146 17.4042 36.1965 17.8267C35.2066 18.2491 34.1743 18.573 33.0995 18.7983C32.9016 18.8828 32.8026 18.9673 32.8026 19.0518C32.8026 19.1081 32.8874 19.1786 33.0571 19.2631C33.142 19.3194 33.2692 19.3898 33.4389 19.4743C33.6086 19.5588 33.8915 19.7841 34.2874 20.1502C34.7116 20.5164 35.0793 20.9248 35.3904 21.3754C35.7298 21.7979 36.0268 22.3893 36.2813 23.1498C36.5358 23.9102 36.6631 24.7129 36.6631 25.5579C36.6631 28.7968 35.447 31.7541 33.0147 34.4297C30.6107 37.0772 27.8249 38.4009 24.6573 38.4009Z" fill="#4E2727"/>
</svg>
